<svg width="52" height="51" viewBox="0 0 52 51" fill="none" xmlns="http://www.w3.org/2000/svg">
<path fill-rule="evenodd" clip-rule="evenodd" d="M25.3675 0.102633C25.7781 -0.0342111 26.2219 -0.0342111 26.6325 0.102633L50.6325 8.10263C51.4491 8.37486 52 9.13914 52 10C52 10.8609 51.4491 11.6251 50.6325 11.8974L39.6009 15.5746C40.6986 17.3463 41.4448 19.3239 41.7869 21.3993C42.2919 24.4626 41.8948 27.6066 40.6439 30.4481C39.3931 33.2896 37.3426 35.7058 34.7424 37.4022C34.6601 37.4558 34.5774 37.5087 34.4943 37.5607C35.5029 37.9421 36.4877 38.3921 37.4415 38.9089C40.9557 40.8128 43.9394 43.5634 46.1222 46.9114C46.7255 47.8367 46.4645 49.0759 45.5392 49.6791C44.6139 50.2824 43.3748 50.0213 42.7715 49.0961C40.9521 46.3054 38.4651 44.0128 35.5361 42.4259C32.607 40.8389 29.3282 40.0078 25.9969 40.0078C22.6655 40.0078 19.3868 40.8389 16.4577 42.4259C13.5286 44.0128 11.0417 46.3054 9.22223 49.0961C8.61897 50.0213 7.37983 50.2824 6.45455 49.6791C5.52927 49.0759 5.26823 47.8367 5.87149 46.9114C8.05437 43.5634 11.038 40.8128 14.5522 38.9089C15.5073 38.3914 16.4934 37.9409 17.5033 37.5593C17.421 37.5077 17.3391 37.4553 17.2576 37.4022C14.6574 35.7058 12.6069 33.2896 11.3561 30.4481C10.1052 27.6066 9.7081 24.4626 10.2131 21.3993C10.5552 19.3239 11.3014 17.3463 12.3992 15.5746L4 12.7749V30C4 31.1046 3.10457 32 2 32C0.89543 32 0 31.1046 0 30V10C0 9.49257 0.188977 9.02927 0.500391 8.67665C0.594262 8.57023 0.699649 8.47354 0.81508 8.38864C0.993508 8.25721 1.19455 8.15471 1.4113 8.08805L25.3675 0.102633ZM16.5064 12.7273C16.3762 12.6677 16.2411 12.623 16.1036 12.593L8.32456 10L26 4.10819L43.6754 10L35.8964 12.593C35.7589 12.623 35.6239 12.6677 35.4937 12.7272L26 15.8918L16.5064 12.7273ZM16.3366 16.8871C15.2173 18.4073 14.4688 20.1754 14.1598 22.0499C13.7811 24.3474 14.0789 26.7054 15.0171 28.8365C15.9552 30.9676 17.4931 32.7798 19.4432 34.0521C21.3934 35.3243 23.6715 36.0017 26 36.0017C28.3285 36.0017 30.6066 35.3243 32.5568 34.0521C34.5069 32.7798 36.0448 30.9676 36.9829 28.8365C37.9211 26.7054 38.2189 24.3474 37.8402 22.0499C37.5312 20.1754 36.7827 18.4073 35.6634 16.887L26.6325 19.8974C26.2219 20.0342 25.7781 20.0342 25.3675 19.8974L16.3366 16.8871Z" fill="white"/>
</svg>
