<svg width="48" height="56" viewBox="0 0 48 56" fill="none" xmlns="http://www.w3.org/2000/svg">
<path d="M18 0C16.8954 0 16 0.89543 16 2C16 3.10457 16.8954 4 18 4H30C31.1046 4 32 3.10457 32 2C32 0.89543 31.1046 0 30 0H18Z" fill="white"/>
<path d="M35.3137 20.6863C36.0948 21.4673 36.0948 22.7336 35.3137 23.5147L25.4142 33.4142C24.6332 34.1952 23.3668 34.1952 22.5858 33.4142C21.8047 32.6331 21.8047 31.3668 22.5858 30.5857L32.4853 20.6863C33.2663 19.9052 34.5327 19.9052 35.3137 20.6863Z" fill="white"/>
<path fill-rule="evenodd" clip-rule="evenodd" d="M0 32C0 18.7452 10.7452 8 24 8C37.2548 8 48 18.7452 48 32C48 45.2548 37.2548 56 24 56C10.7452 56 0 45.2548 0 32ZM24 12C12.9543 12 4 20.9543 4 32C4 43.0457 12.9543 52 24 52C35.0457 52 44 43.0457 44 32C44 20.9543 35.0457 12 24 12Z" fill="white"/>
</svg>
