<svg width="52" height="46" viewBox="0 0 52 46" fill="none" xmlns="http://www.w3.org/2000/svg">
<path fill-rule="evenodd" clip-rule="evenodd" d="M12 0C10.8954 0 10 0.89543 10 2C10 3.10457 10.8954 4 12 4H36C37.5913 4 39.1174 4.63214 40.2426 5.75736C41.3679 6.88258 42 8.4087 42 10C42 11.5913 41.3679 13.1174 40.2426 14.2426C39.1174 15.3679 37.5913 16 36 16H12C8.8174 16 5.76516 17.2643 3.51472 19.5147C1.26428 21.7652 0 24.8174 0 28C0 31.1826 1.26428 34.2348 3.51472 36.4853C5.76516 38.7357 8.8174 40 12 40H36.252C37.1401 43.4505 40.2723 46 44 46C48.4183 46 52 42.4183 52 38C52 33.5817 48.4183 30 44 30C40.2723 30 37.1401 32.5495 36.252 36H12C9.87827 36 7.84344 35.1571 6.34315 33.6569C4.84285 32.1566 4 30.1217 4 28C4 25.8783 4.84285 23.8434 6.34315 22.3431C7.84344 20.8429 9.87827 20 12 20H36C38.6522 20 41.1957 18.9464 43.0711 17.0711C44.9464 15.1957 46 12.6522 46 10C46 7.34783 44.9464 4.80429 43.0711 2.92893C41.1957 1.05357 38.6522 0 36 0H12ZM40 38C40 40.2091 41.7909 42 44 42C46.2091 42 48 40.2091 48 38C48 35.7909 46.2091 34 44 34C41.7909 34 40 35.7909 40 38Z" fill="white"/>
</svg>
