<svg width="60" height="48" viewBox="0 0 60 48" fill="none" xmlns="http://www.w3.org/2000/svg">
<path fill-rule="evenodd" clip-rule="evenodd" d="M28.9523 0.296683C29.5951 -0.0988944 30.4059 -0.0988944 31.0487 0.296683L57.0487 16.2967C57.8108 16.7656 58.1686 17.6837 57.9249 18.5447C57.6812 19.4057 56.8953 20 56.0005 20H50.0006V36H54.0006C55.1052 36 56.0006 36.8954 56.0006 38C56.0006 39.1046 55.1052 40 54.0006 40H6.00061C4.89604 40 4.00061 39.1046 4.00061 38C4.00061 36.8954 4.89604 36 6.00061 36H10.0006V20H4.0005C3.10571 20 2.31979 19.4057 2.0761 18.5447C1.83241 17.6837 2.19025 16.7656 2.9523 16.2967L28.9523 0.296683ZM46.0006 20V36H38.0006V20H46.0006ZM34.0006 20V36H26.0006V20H34.0006ZM22.0006 20V36H14.0006V20H22.0006ZM48.9344 16L30.0005 4.34836L11.0666 16H48.9344Z" fill="white"/>
<path d="M2.00061 44C0.896041 44 0.000610352 44.8954 0.000610352 46C0.000610352 47.1046 0.896041 48 2.00061 48H58.0006C59.1052 48 60.0006 47.1046 60.0006 46C60.0006 44.8954 59.1052 44 58.0006 44H2.00061Z" fill="white"/>
</svg>
