<svg width="53" height="52" viewBox="0 0 53 52" fill="none" xmlns="http://www.w3.org/2000/svg">
<path d="M51.4143 0.585786C52.1953 1.36683 52.1953 2.63317 51.4143 3.41421L44.3883 10.4402L44.3863 10.4422L27.4143 27.4142C26.6332 28.1953 25.3669 28.1953 24.5858 27.4142C23.8048 26.6332 23.8048 25.3668 24.5858 24.5858L31.514 17.6576C30.1447 16.7526 28.5644 16.1927 26.9093 16.0417C24.581 15.8292 22.2518 16.4392 20.3266 17.7658C18.4014 19.0924 17.0019 21.0516 16.3713 23.303C15.7407 25.5543 15.919 27.9555 16.875 30.0891C17.8311 32.2227 19.5045 33.9538 21.6045 34.9816C23.7044 36.0094 26.0982 36.2689 28.3696 35.715C30.641 35.1611 32.6466 33.8288 34.0376 31.9496C35.4287 30.0705 36.1173 27.7633 35.9839 25.4291C35.9208 24.3263 36.7637 23.3812 37.8664 23.3182C38.9692 23.2551 39.9143 24.098 39.9773 25.2007C40.1642 28.4686 39.2001 31.6987 37.2526 34.3295C35.3051 36.9604 32.4973 38.8256 29.3173 39.6011C26.1373 40.3766 22.786 40.0133 19.846 38.5744C16.9061 37.1354 14.5632 34.7118 13.2247 31.7248C11.8862 28.7377 11.6367 25.3761 12.5195 22.2242C13.4024 19.0722 15.3617 16.3293 18.057 14.472C20.7523 12.6148 24.0132 11.7607 27.2729 12.0582C29.8627 12.2946 32.3217 13.246 34.3838 14.7878L40.0762 9.0954C36.3858 6.02961 31.7762 4.24332 26.946 4.04259C21.4454 3.814 16.0593 5.6583 11.8534 9.21062C7.64743 12.7629 4.92797 17.7645 4.233 23.2258C3.53804 28.6871 4.9182 34.2104 8.10044 38.7029C11.2827 43.1954 16.0352 46.3298 21.4177 47.4861C26.8003 48.6424 32.4208 47.7364 37.1674 44.9472C41.9139 42.1581 45.4407 37.689 47.05 32.4241C48.6593 27.1592 48.2339 21.482 45.858 16.5157C45.3813 15.5193 45.8026 14.3251 46.799 13.8484C47.7954 13.3717 48.9896 13.7931 49.4663 14.7895C52.2747 20.6597 52.7775 27.3702 50.8753 33.5933C48.973 39.8165 44.8043 45.0991 39.1939 48.3959C33.5834 51.6927 26.9399 52.7637 20.5776 51.3969C14.2153 50.0301 8.59781 46.3251 4.83636 41.015C1.07491 35.7048 -0.556457 29.1762 0.265001 22.7209C1.08646 16.2655 4.30091 10.3536 9.2724 6.15472C14.2439 1.95584 20.6103 -0.224153 27.1121 0.04604C32.9455 0.288455 38.5066 2.48732 42.9149 6.25677L48.5858 0.585786C49.3669 -0.195262 50.6332 -0.195262 51.4143 0.585786Z" fill="white"/>
</svg>
