<svg width="44" height="52" viewBox="0 0 44 52" fill="none" xmlns="http://www.w3.org/2000/svg">
<path d="M12 28C12 26.8954 12.8954 26 14 26H30C31.1046 26 32 26.8954 32 28C32 29.1046 31.1046 30 30 30H14C12.8954 30 12 29.1046 12 28Z" fill="white"/>
<path d="M14 34C12.8954 34 12 34.8954 12 36C12 37.1046 12.8954 38 14 38H30C31.1046 38 32 37.1046 32 36C32 34.8954 31.1046 34 30 34H14Z" fill="white"/>
<path fill-rule="evenodd" clip-rule="evenodd" d="M4 0C2.93913 0 1.92172 0.421429 1.17157 1.17157C0.421429 1.92172 0 2.93913 0 4V48C0 49.0609 0.421427 50.0783 1.17157 50.8284C1.92172 51.5786 2.93914 52 4 52H40C41.0609 52 42.0783 51.5786 42.8284 50.8284C43.5786 50.0783 44 49.0609 44 48V16C44 15.4696 43.7893 14.9609 43.4142 14.5858L29.4142 0.585786C29.0391 0.210714 28.5304 0 28 0H4ZM26 4L4 4L4 48H40V18H28C26.8954 18 26 17.1045 26 16V4ZM37.1715 14L30 6.82843V14H37.1715Z" fill="white"/>
</svg>
