<svg width="52" height="48" viewBox="0 0 52 48" fill="none" xmlns="http://www.w3.org/2000/svg">
<path d="M48 8H38V6C38 4.4087 37.3679 2.88258 36.2426 1.75736C35.1174 0.632141 33.5913 0 32 0H20C18.4087 0 16.8826 0.632141 15.7574 1.75736C14.6321 2.88258 14 4.4087 14 6V8H4C2.93913 8 1.92172 8.42143 1.17157 9.17157C0.421427 9.92172 0 10.9391 0 12V44C0 45.0609 0.421427 46.0783 1.17157 46.8284C1.92172 47.5786 2.93913 48 4 48H48C49.0609 48 50.0783 47.5786 50.8284 46.8284C51.5786 46.0783 52 45.0609 52 44V12C52 10.9391 51.5786 9.92172 50.8284 9.17157C50.0783 8.42143 49.0609 8 48 8ZM18 6C18 5.46957 18.2107 4.96086 18.5858 4.58579C18.9609 4.21071 19.4696 4 20 4H32C32.5304 4 33.0391 4.21071 33.4142 4.58579C33.7893 4.96086 34 5.46957 34 6V8H18V6ZM48 12V22.4025C41.2494 26.0769 33.6858 28.0014 26 28C18.3145 28.0014 10.7511 26.0779 4 22.405V12H48ZM48 44H4V26.91C10.8498 30.2605 18.3747 32.0015 26 32C33.6255 32.0002 41.1502 30.2584 48 26.9075V44ZM20 22C20 21.4696 20.2107 20.9609 20.5858 20.5858C20.9609 20.2107 21.4696 20 22 20H30C30.5304 20 31.0391 20.2107 31.4142 20.5858C31.7893 20.9609 32 21.4696 32 22C32 22.5304 31.7893 23.0391 31.4142 23.4142C31.0391 23.7893 30.5304 24 30 24H22C21.4696 24 20.9609 23.7893 20.5858 23.4142C20.2107 23.0391 20 22.5304 20 22Z" fill="black"/>
</svg>
