<svg width="49" height="48" viewBox="0 0 49 48" fill="none" xmlns="http://www.w3.org/2000/svg">
<path d="M44.3334 0H4.33337C3.27251 0 2.25509 0.421427 1.50495 1.17157C0.754801 1.92172 0.333374 2.93913 0.333374 4V44C0.333374 45.0609 0.754801 46.0783 1.50495 46.8284C2.25509 47.5786 3.27251 48 4.33337 48H44.3334C45.3942 48 46.4117 47.5786 47.1618 46.8284C47.9119 46.0783 48.3334 45.0609 48.3334 44V4C48.3334 2.93913 47.9119 1.92172 47.1618 1.17157C46.4117 0.421427 45.3942 0 44.3334 0ZM14.3334 32C14.7289 32 15.1156 32.1173 15.4445 32.3371C15.7734 32.5568 16.0298 32.8692 16.1811 33.2346C16.3325 33.6001 16.3721 34.0022 16.2949 34.3902C16.2178 34.7781 16.0273 35.1345 15.7476 35.4142C15.4679 35.6939 15.1115 35.8844 14.7236 35.9616C14.3356 36.0387 13.9335 35.9991 13.568 35.8478C13.2026 35.6964 12.8902 35.44 12.6704 35.1111C12.4507 34.7822 12.3334 34.3956 12.3334 34C12.3334 33.4696 12.5441 32.9609 12.9192 32.5858C13.2942 32.2107 13.8029 32 14.3334 32ZM4.33337 4H12.3334V28.345C10.9989 28.8168 9.87427 29.7451 9.15811 30.966C8.44196 32.1868 8.18044 33.6215 8.41978 35.0165C8.65913 36.4115 9.38392 37.6769 10.4661 38.5892C11.5482 39.5015 12.918 40.0019 14.3334 40.0019C15.7487 40.0019 17.1186 39.5015 18.2007 38.5892C19.2828 37.6769 20.0076 36.4115 20.247 35.0165C20.4863 33.6215 20.2248 32.1868 19.5086 30.966C18.7925 29.7451 17.6678 28.8168 16.3334 28.345V20.8275L28.3334 32.8275V44H4.33337V4ZM44.3334 44H32.3334V32C32.3336 31.7373 32.282 31.4771 32.1816 31.2343C32.0813 30.9915 31.934 30.7709 31.7484 30.585L16.3334 15.1725V4H24.3334V10C24.3332 10.2627 24.3847 10.5229 24.4851 10.7657C24.5855 11.0085 24.7327 11.2291 24.9184 11.415L28.9184 15.415C28.531 16.2216 28.331 17.1053 28.3334 18C28.3334 19.1867 28.6853 20.3467 29.3446 21.3334C30.0038 22.3201 30.9409 23.0892 32.0373 23.5433C33.1336 23.9974 34.34 24.1162 35.5039 23.8847C36.6678 23.6532 37.7369 23.0818 38.576 22.2426C39.4151 21.4035 39.9866 20.3344 40.2181 19.1705C40.4496 18.0067 40.3308 16.8003 39.8767 15.7039C39.4225 14.6075 38.6535 13.6705 37.6668 13.0112C36.6801 12.3519 35.5201 12 34.3334 12C33.4384 11.9984 32.5547 12.1993 31.7484 12.5875L28.3334 9.1725V4H44.3334V44ZM34.3334 16C34.7289 16 35.1156 16.1173 35.4445 16.3371C35.7734 16.5568 36.0298 16.8692 36.1811 17.2346C36.3325 17.6001 36.3721 18.0022 36.2949 18.3902C36.2178 18.7781 36.0273 19.1345 35.7476 19.4142C35.4679 19.6939 35.1115 19.8844 34.7236 19.9616C34.3356 20.0387 33.9335 19.9991 33.568 19.8478C33.2026 19.6964 32.8902 19.44 32.6704 19.1111C32.4507 18.7822 32.3334 18.3956 32.3334 18C32.3334 17.4696 32.5441 16.9609 32.9192 16.5858C33.2942 16.2107 33.8029 16 34.3334 16Z" fill="black"/>
</svg>
