<svg width="61" height="45" viewBox="0 0 61 45" fill="none" xmlns="http://www.w3.org/2000/svg">
<path d="M59.8667 25.6C59.6565 25.7576 59.4174 25.8722 59.163 25.9374C58.9086 26.0026 58.6438 26.017 58.3838 25.9799C58.1238 25.9427 57.8737 25.8547 57.6477 25.7209C57.4217 25.5871 57.2242 25.4101 57.0667 25.2C55.8612 23.5796 54.2921 22.265 52.4858 21.3618C50.6794 20.4586 48.6862 19.9921 46.6667 20C46.2734 19.9999 45.8888 19.884 45.5611 19.6665C45.2334 19.4491 44.977 19.1398 44.8242 18.7775C44.7203 18.5314 44.6668 18.267 44.6668 18C44.6668 17.7329 44.7203 17.4685 44.8242 17.2225C44.977 16.8601 45.2334 16.5509 45.5611 16.3334C45.8888 16.116 46.2734 16 46.6667 16C47.7888 15.9999 48.8885 15.6851 49.8407 15.0913C50.793 14.4976 51.5596 13.6487 52.0536 12.6411C52.5475 11.6335 52.749 10.5075 52.6352 9.39113C52.5213 8.27475 52.0966 7.21267 51.4094 6.32554C50.7222 5.43841 49.7999 4.76178 48.7474 4.37252C47.6949 3.98326 46.5543 3.89696 45.4552 4.12344C44.3561 4.34991 43.3426 4.88007 42.5297 5.6537C41.7168 6.42734 41.1372 7.41343 40.8567 8.49998C40.791 8.75441 40.6759 8.99343 40.5178 9.20337C40.3598 9.41331 40.162 9.59007 39.9356 9.72355C39.7093 9.85704 39.4589 9.94463 39.1987 9.98134C38.9385 10.018 38.6736 10.0031 38.4192 9.93748C38.1647 9.87182 37.9257 9.75668 37.7158 9.59865C37.5058 9.44062 37.3291 9.24279 37.1956 9.01644C37.0621 8.7901 36.9745 8.53968 36.9378 8.27949C36.9011 8.01929 36.916 7.75441 36.9817 7.49998C37.371 5.99326 38.1067 4.59822 39.1301 3.42586C40.1535 2.25349 41.4364 1.33616 42.8768 0.746854C44.3171 0.157548 45.8751 -0.0874668 47.4268 0.0313045C48.9784 0.150076 50.481 0.629356 51.8148 1.43101C53.1487 2.23266 54.277 3.33456 55.1101 4.64902C55.9432 5.96349 56.4579 7.45425 56.6135 9.00267C56.769 10.5511 56.561 12.1145 56.006 13.5684C55.4511 15.0222 54.5644 16.3265 53.4167 17.3775C56.1362 18.555 58.5003 20.4235 60.2742 22.7975C60.4317 23.0081 60.5462 23.2478 60.611 23.5028C60.6758 23.7577 60.6897 24.0229 60.6518 24.2833C60.614 24.5436 60.5252 24.7939 60.3904 25.0198C60.2557 25.2458 60.0777 25.4429 59.8667 25.6ZM46.3967 41C46.5414 41.2276 46.6385 41.4822 46.6823 41.7483C46.7261 42.0145 46.7156 42.2868 46.6514 42.5488C46.5872 42.8107 46.4707 43.057 46.3089 43.2728C46.1471 43.4886 45.9432 43.6695 45.7097 43.8045C45.4762 43.9395 45.2178 44.0258 44.95 44.0583C44.6822 44.0909 44.4106 44.0689 44.1516 43.9937C43.8925 43.9186 43.6513 43.7918 43.4426 43.621C43.2338 43.4502 43.0617 43.239 42.9367 43C41.6768 40.8667 39.8824 39.0987 37.7307 37.8705C35.579 36.6423 33.1442 35.9963 30.6667 35.9963C28.1891 35.9963 25.7543 36.6423 23.6026 37.8705C21.4509 39.0987 19.6565 40.8667 18.3967 43C18.2716 43.239 18.0995 43.4502 17.8907 43.621C17.682 43.7918 17.4408 43.9186 17.1817 43.9937C16.9227 44.0689 16.6511 44.0909 16.3833 44.0583C16.1155 44.0258 15.8571 43.9395 15.6236 43.8045C15.3901 43.6695 15.1863 43.4886 15.0244 43.2728C14.8626 43.057 14.7461 42.8107 14.6819 42.5488C14.6177 42.2868 14.6072 42.0145 14.651 41.7483C14.6948 41.4822 14.7919 41.2276 14.9367 41C16.8756 37.6684 19.8321 35.0467 23.3717 33.52C21.38 31.9951 19.9162 29.8844 19.1862 27.4846C18.4561 25.0847 18.4964 22.5165 19.3014 20.1407C20.1065 17.765 21.6358 15.7013 23.6743 14.2397C25.7129 12.778 28.1582 11.992 30.6667 11.992C33.1751 11.992 35.6204 12.778 37.659 14.2397C39.6975 15.7013 41.2268 17.765 42.0319 20.1407C42.8369 22.5165 42.8772 25.0847 42.1472 27.4846C41.4171 29.8844 39.9533 31.9951 37.9617 33.52C41.5012 35.0467 44.4577 37.6684 46.3967 41ZM30.6667 32C32.2489 32 33.7956 31.5308 35.1112 30.6517C36.4268 29.7727 37.4522 28.5233 38.0577 27.0614C38.6632 25.5996 38.8216 23.9911 38.5129 22.4393C38.2043 20.8874 37.4423 19.4619 36.3235 18.3431C35.2047 17.2243 33.7792 16.4624 32.2274 16.1537C30.6755 15.845 29.067 16.0034 27.6052 16.6089C26.1434 17.2144 24.8939 18.2398 24.0149 19.5554C23.1358 20.871 22.6667 22.4177 22.6667 24C22.6667 26.1217 23.5095 28.1565 25.0098 29.6568C26.5101 31.1571 28.5449 32 30.6667 32ZM16.6667 18C16.6667 17.4695 16.4559 16.9608 16.0809 16.5858C15.7058 16.2107 15.1971 16 14.6667 16C13.5445 15.9999 12.4448 15.6851 11.4926 15.0913C10.5403 14.4976 9.7737 13.6487 9.27973 12.6411C8.78577 11.6335 8.58428 10.5075 8.69815 9.39113C8.81202 8.27475 9.23669 7.21267 9.92392 6.32554C10.6112 5.43841 11.5334 4.76178 12.5859 4.37252C13.6384 3.98326 14.779 3.89696 15.8781 4.12344C16.9772 4.34991 17.9907 4.88007 18.8036 5.6537C19.6165 6.42734 20.1961 7.41343 20.4767 8.49998C20.6093 9.01383 20.9406 9.45397 21.3977 9.72355C21.8548 9.99314 22.4003 10.0701 22.9142 9.93748C23.428 9.80487 23.8681 9.47356 24.1377 9.01644C24.4073 8.55932 24.4843 8.01383 24.3517 7.49998C23.9623 5.99326 23.2266 4.59822 22.2032 3.42586C21.1798 2.25349 19.8969 1.33616 18.4565 0.746854C17.0162 0.157548 15.4582 -0.0874668 13.9065 0.0313045C12.3549 0.150076 10.8523 0.629356 9.51847 1.43101C8.18461 2.23266 7.05626 3.33456 6.2232 4.64902C5.39014 5.96349 4.87536 7.45425 4.71982 9.00267C4.56429 10.5511 4.77228 12.1145 5.32726 13.5684C5.88224 15.0222 6.76889 16.3265 7.91665 17.3775C5.19986 18.5561 2.83844 20.4245 1.06665 22.7975C0.748061 23.2218 0.611089 23.7554 0.685869 24.2807C0.760649 24.806 1.04106 25.2801 1.4654 25.5987C1.88975 25.9173 2.42327 26.0543 2.94861 25.9795C3.47395 25.9047 3.94806 25.6243 4.26665 25.2C5.47212 23.5796 7.04119 22.265 8.84755 21.3618C10.6539 20.4586 12.6471 19.9921 14.6667 20C15.1971 20 15.7058 19.7893 16.0809 19.4142C16.4559 19.0391 16.6667 18.5304 16.6667 18Z" fill="black"/>
</svg>
