<svg width="57" height="56" viewBox="0 0 57 56" fill="none" xmlns="http://www.w3.org/2000/svg">
<path d="M56.1759 13.525C55.977 12.9044 55.5982 12.3569 55.0877 11.9519C54.5772 11.5469 53.9579 11.3026 53.3084 11.25L44.0034 10.4625L40.3734 1.99997C40.1172 1.4067 39.6929 0.901409 39.1529 0.546416C38.613 0.191422 37.9809 0.0022583 37.3346 0.0022583C36.6884 0.0022583 36.0563 0.191422 35.5163 0.546416C34.9764 0.901409 34.5521 1.4067 34.2959 1.99997L30.6659 10.465L21.3584 11.25C20.7121 11.3019 20.0957 11.544 19.5868 11.9459C19.078 12.3477 18.6995 12.8912 18.4993 13.5079C18.299 14.1246 18.2858 14.7867 18.4614 15.4109C18.637 16.035 18.9935 16.5932 19.4859 17.015L26.5259 23.015L24.4184 31.9475C24.2702 32.5736 24.3097 33.2295 24.5321 33.8332C24.7544 34.437 25.1496 34.9619 25.6684 35.3425C26.1933 35.728 26.8202 35.9502 27.4708 35.9813C28.1213 36.0124 28.7666 35.8511 29.3259 35.5175L37.3259 30.7675L45.3259 35.5175C45.8852 35.8511 46.5305 36.0124 47.181 35.9813C47.8315 35.9502 48.4585 35.728 48.9834 35.3425C49.5024 34.9622 49.8979 34.4373 50.1202 33.8334C50.3425 33.2296 50.3819 32.5736 50.2334 31.9475L48.1259 23.015L55.1634 17.015C55.6587 16.5988 56.0193 16.045 56.1996 15.4237C56.3798 14.8024 56.3716 14.1416 56.1759 13.525ZM45.2109 20.275C44.7502 20.6653 44.4068 21.1756 44.2188 21.7494C44.0308 22.3231 44.0056 22.9377 44.1459 23.525L45.9734 31.275L39.0284 27.1475C38.5158 26.8419 37.9301 26.6805 37.3334 26.6805C36.7366 26.6805 36.151 26.8419 35.6384 27.1475L28.6934 31.25L30.5209 23.5C30.6633 22.913 30.6393 22.298 30.4516 21.7239C30.2639 21.1499 29.92 20.6395 29.4584 20.25L23.3934 15.095L31.4159 14.415C32.0113 14.365 32.5819 14.1538 33.0664 13.8041C33.5509 13.4544 33.931 12.9794 34.1659 12.43L37.3334 5.05997L40.4934 12.43C40.7288 12.9791 41.109 13.4538 41.5934 13.8035C42.0778 14.1531 42.6481 14.3645 43.2434 14.415L51.2659 15.095L45.2109 20.275ZM17.7484 27.415L3.74839 41.415C3.37311 41.7903 2.86412 42.0011 2.33339 42.0011C1.80266 42.0011 1.29367 41.7903 0.918388 41.415C0.543106 41.0397 0.332275 40.5307 0.332275 40C0.332275 39.4692 0.543106 38.9603 0.918388 38.585L14.9184 24.585C15.2937 24.2097 15.8027 23.9989 16.3334 23.9989C16.8641 23.9989 17.3731 24.2097 17.7484 24.585C18.1237 24.9603 18.3345 25.4692 18.3345 26C18.3345 26.5307 18.1237 27.0397 17.7484 27.415ZM21.7484 41.415L7.74839 55.415C7.56257 55.6008 7.34197 55.7482 7.09918 55.8488C6.85639 55.9493 6.59618 56.0011 6.33339 56.0011C6.0706 56.0011 5.81038 55.9493 5.56759 55.8488C5.32481 55.7482 5.10421 55.6008 4.91839 55.415C4.73257 55.2291 4.58517 55.0085 4.4846 54.7658C4.38404 54.523 4.33228 54.2628 4.33228 54C4.33228 53.7372 4.38404 53.477 4.4846 53.2342C4.58517 52.9914 4.73257 52.7708 4.91839 52.585L18.9184 38.585C19.2937 38.2097 19.8027 37.9989 20.3334 37.9989C20.8641 37.9989 21.3731 38.2097 21.7484 38.585C22.1237 38.9603 22.3345 39.4692 22.3345 40C22.3345 40.5307 22.1237 41.0397 21.7484 41.415ZM39.7484 38.585C39.9343 38.7707 40.0819 38.9913 40.1825 39.2341C40.2832 39.4769 40.335 39.7371 40.335 40C40.335 40.2628 40.2832 40.5231 40.1825 40.7659C40.0819 41.0086 39.9343 41.2292 39.7484 41.415L25.7484 55.415C25.5626 55.6008 25.342 55.7482 25.0992 55.8488C24.8564 55.9493 24.5962 56.0011 24.3334 56.0011C24.0706 56.0011 23.8104 55.9493 23.5676 55.8488C23.3248 55.7482 23.1042 55.6008 22.9184 55.415C22.7326 55.2291 22.5852 55.0085 22.4846 54.7658C22.384 54.523 22.3323 54.2628 22.3323 54C22.3323 53.7372 22.384 53.477 22.4846 53.2342C22.5852 52.9914 22.7326 52.7708 22.9184 52.585L36.9184 38.585C37.1041 38.399 37.3247 38.2515 37.5675 38.1508C37.8103 38.0502 38.0706 37.9984 38.3334 37.9984C38.5962 37.9984 38.8565 38.0502 39.0993 38.1508C39.3421 38.2515 39.5626 38.399 39.7484 38.585Z" fill="black"/>
</svg>
