<svg width="53" height="48" viewBox="0 0 53 48" fill="none" xmlns="http://www.w3.org/2000/svg">
<path d="M46.6666 0H6.66663C5.07533 0 3.5492 0.632141 2.42399 1.75736C1.29877 2.88258 0.666626 4.4087 0.666626 6V34C0.666626 35.5913 1.29877 37.1174 2.42399 38.2426C3.5492 39.3679 5.07533 40 6.66663 40H46.6666C48.2579 40 49.784 39.3679 50.9093 38.2426C52.0345 37.1174 52.6666 35.5913 52.6666 34V6C52.6666 4.4087 52.0345 2.88258 50.9093 1.75736C49.784 0.632141 48.2579 0 46.6666 0ZM48.6666 34C48.6666 34.5304 48.4559 35.0391 48.0808 35.4142C47.7058 35.7893 47.1971 36 46.6666 36H6.66663C6.13619 36 5.62749 35.7893 5.25241 35.4142C4.87734 35.0391 4.66663 34.5304 4.66663 34V6C4.66663 5.46957 4.87734 4.96086 5.25241 4.58579C5.62749 4.21071 6.13619 4 6.66663 4H46.6666C47.1971 4 47.7058 4.21071 48.0808 4.58579C48.4559 4.96086 48.6666 5.46957 48.6666 6V34ZM36.6666 46C36.6666 46.5304 36.4559 47.0391 36.0808 47.4142C35.7058 47.7893 35.1971 48 34.6666 48H18.6666C18.1362 48 17.6275 47.7893 17.2524 47.4142C16.8773 47.0391 16.6666 46.5304 16.6666 46C16.6666 45.4696 16.8773 44.9609 17.2524 44.5858C17.6275 44.2107 18.1362 44 18.6666 44H34.6666C35.1971 44 35.7058 44.2107 36.0808 44.5858C36.4559 44.9609 36.6666 45.4696 36.6666 46ZM35.7766 18.335L23.7766 10.335C23.4754 10.134 23.1252 10.0186 22.7634 10.001C22.4017 9.98352 22.0419 10.0645 21.7227 10.2355C21.4034 10.4064 21.1365 10.6609 20.9505 10.9716C20.7645 11.2824 20.6664 11.6378 20.6666 12V28C20.6664 28.3622 20.7645 28.7176 20.9505 29.0284C21.1365 29.3391 21.4034 29.5936 21.7227 29.7645C22.0419 29.9354 22.4017 30.0165 22.7634 29.999C23.1252 29.9814 23.4754 29.866 23.7766 29.665L35.7766 21.665C36.051 21.4824 36.2759 21.2349 36.4315 20.9444C36.5872 20.654 36.6686 20.3295 36.6686 20C36.6686 19.6705 36.5872 19.346 36.4315 19.0556C36.2759 18.7651 36.051 18.5176 35.7766 18.335ZM24.6666 24.2625V15.75L31.0616 20L24.6666 24.2625Z" fill="black"/>
</svg>
