<svg width="52" height="54" viewBox="0 0 52 54" fill="none" xmlns="http://www.w3.org/2000/svg">
<path d="M48 6H28V2C28 1.46957 27.7893 0.960859 27.4142 0.585786C27.0391 0.210714 26.5304 0 26 0C25.4696 0 24.9609 0.210714 24.5858 0.585786C24.2107 0.960859 24 1.46957 24 2V6H4C2.93913 6 1.92172 6.42143 1.17157 7.17157C0.421427 7.92172 0 8.93913 0 10V40C0 41.0609 0.421427 42.0783 1.17157 42.8284C1.92172 43.5786 2.93913 44 4 44H13.84L8.4375 50.75C8.10598 51.1644 7.95266 51.6935 8.01126 52.221C8.06987 52.7484 8.3356 53.231 8.75 53.5625C9.1644 53.894 9.69352 54.0473 10.221 53.9887C10.7484 53.9301 11.231 53.6644 11.5625 53.25L18.96 44H33.04L40.4375 53.25C40.6017 53.4552 40.8046 53.626 41.0348 53.7528C41.265 53.8795 41.5179 53.9597 41.779 53.9887C42.0402 54.0178 42.3045 53.9951 42.5569 53.9219C42.8093 53.8488 43.0448 53.7267 43.25 53.5625C43.4552 53.3983 43.626 53.1954 43.7528 52.9652C43.8795 52.735 43.9597 52.4821 43.9887 52.221C44.0178 51.9598 43.9951 51.6955 43.9219 51.4431C43.8488 51.1907 43.7267 50.9552 43.5625 50.75L38.16 44H48C49.0609 44 50.0783 43.5786 50.8284 42.8284C51.5786 42.0783 52 41.0609 52 40V10C52 8.93913 51.5786 7.92172 50.8284 7.17157C50.0783 6.42143 49.0609 6 48 6ZM48 40H4V10H48V40ZM20 26V32C20 32.5304 19.7893 33.0391 19.4142 33.4142C19.0391 33.7893 18.5304 34 18 34C17.4696 34 16.9609 33.7893 16.5858 33.4142C16.2107 33.0391 16 32.5304 16 32V26C16 25.4696 16.2107 24.9609 16.5858 24.5858C16.9609 24.2107 17.4696 24 18 24C18.5304 24 19.0391 24.2107 19.4142 24.5858C19.7893 24.9609 20 25.4696 20 26ZM28 22V32C28 32.5304 27.7893 33.0391 27.4142 33.4142C27.0391 33.7893 26.5304 34 26 34C25.4696 34 24.9609 33.7893 24.5858 33.4142C24.2107 33.0391 24 32.5304 24 32V22C24 21.4696 24.2107 20.9609 24.5858 20.5858C24.9609 20.2107 25.4696 20 26 20C26.5304 20 27.0391 20.2107 27.4142 20.5858C27.7893 20.9609 28 21.4696 28 22ZM36 18V32C36 32.5304 35.7893 33.0391 35.4142 33.4142C35.0391 33.7893 34.5304 34 34 34C33.4696 34 32.9609 33.7893 32.5858 33.4142C32.2107 33.0391 32 32.5304 32 32V18C32 17.4696 32.2107 16.9609 32.5858 16.5858C32.9609 16.2107 33.4696 16 34 16C34.5304 16 35.0391 16.2107 35.4142 16.5858C35.7893 16.9609 36 17.4696 36 18Z" fill="black"/>
</svg>
